<svg xmlns="http://www.w3.org/2000/svg" xmlns:xlink="http://www.w3.org/1999/xlink" width="763.733" height="738.62" viewBox="0 0 763.733 738.62">
  <defs>
    <linearGradient id="linear-gradient" x1="0.514" y1="0.779" x2="0.461" y2="-0.279" gradientUnits="objectBoundingBox">
      <stop offset="0" stop-color="#fff" stop-opacity="0"/>
      <stop offset="0.95" stop-color="#fff"/>
    </linearGradient>
    <linearGradient id="linear-gradient-2" x1="0.528" y1="0.507" x2="1.184" y2="0.668" xlink:href="#linear-gradient"/>
    <linearGradient id="linear-gradient-3" x1="0.489" y1="-0.969" x2="0.508" y2="1.545" xlink:href="#linear-gradient"/>
    <linearGradient id="linear-gradient-4" x1="0.521" y1="1.133" x2="0.467" y2="-0.473" xlink:href="#linear-gradient"/>
    <linearGradient id="linear-gradient-5" x1="2.944" y1="98.494" x2="2.889" y2="58.447" gradientUnits="objectBoundingBox">
      <stop offset="0" stop-color="#fff" stop-opacity="0"/>
      <stop offset="0.99" stop-color="#fff"/>
    </linearGradient>
    <linearGradient id="linear-gradient-6" x1="4.508" y1="103.127" x2="4.417" y2="60.38" xlink:href="#linear-gradient-5"/>
    <linearGradient id="linear-gradient-7" x1="1.774" y1="101.862" x2="1.745" y2="59.469" xlink:href="#linear-gradient-5"/>
    <linearGradient id="linear-gradient-8" x1="2.762" y1="101.402" x2="2.711" y2="59.017" xlink:href="#linear-gradient-5"/>
    <linearGradient id="linear-gradient-9" x1="3.419" y1="95.688" x2="3.353" y2="55.164" xlink:href="#linear-gradient-5"/>
    <linearGradient id="linear-gradient-10" x1="2.952" y1="92.542" x2="2.896" y2="52.494" xlink:href="#linear-gradient-5"/>
    <linearGradient id="linear-gradient-11" x1="3.424" y1="83.093" x2="3.358" y2="47.036" xlink:href="#linear-gradient-5"/>
    <linearGradient id="linear-gradient-12" x1="3.679" y1="96.751" x2="3.607" y2="54.004" xlink:href="#linear-gradient-5"/>
    <linearGradient id="linear-gradient-13" x1="2.04" y1="86.878" x2="2.005" y2="48.357" xlink:href="#linear-gradient-5"/>
    <linearGradient id="linear-gradient-14" x1="2.944" y1="77.791" x2="2.889" y2="37.743" xlink:href="#linear-gradient-5"/>
    <linearGradient id="linear-gradient-15" x1="4.508" y1="81.034" x2="4.417" y2="38.283" xlink:href="#linear-gradient-5"/>
    <linearGradient id="linear-gradient-16" x1="1.774" y1="79.946" x2="1.745" y2="37.552" xlink:href="#linear-gradient-5"/>
    <linearGradient id="linear-gradient-17" x1="2.762" y1="79.494" x2="2.711" y2="37.1" xlink:href="#linear-gradient-5"/>
    <linearGradient id="linear-gradient-18" x1="3.419" y1="74.752" x2="3.353" y2="34.224" xlink:href="#linear-gradient-5"/>
    <linearGradient id="linear-gradient-19" x1="2.952" y1="71.838" x2="2.896" y2="31.791" xlink:href="#linear-gradient-5"/>
    <linearGradient id="linear-gradient-20" x1="3.424" y1="64.456" x2="3.358" y2="28.399" xlink:href="#linear-gradient-5"/>
    <linearGradient id="linear-gradient-21" x1="3.679" y1="74.654" x2="3.607" y2="31.907" xlink:href="#linear-gradient-5"/>
    <linearGradient id="linear-gradient-22" x1="2.04" y1="66.969" x2="2.005" y2="28.445" xlink:href="#linear-gradient-5"/>
    <linearGradient id="linear-gradient-23" x1="2.944" y1="57.095" x2="2.889" y2="17.051" xlink:href="#linear-gradient-5"/>
    <linearGradient id="linear-gradient-24" x1="4.508" y1="58.941" x2="4.417" y2="16.19" xlink:href="#linear-gradient-5"/>
    <linearGradient id="linear-gradient-25" x1="1.774" y1="58.038" x2="1.745" y2="15.649" xlink:href="#linear-gradient-5"/>
    <linearGradient id="linear-gradient-26" x1="2.762" y1="57.586" x2="2.711" y2="15.192" xlink:href="#linear-gradient-5"/>
    <linearGradient id="linear-gradient-27" x1="3.419" y1="53.808" x2="3.353" y2="13.28" xlink:href="#linear-gradient-5"/>
    <linearGradient id="linear-gradient-28" x1="2.952" y1="51.146" x2="2.896" y2="11.099" xlink:href="#linear-gradient-5"/>
    <linearGradient id="linear-gradient-29" x1="3.424" y1="45.822" x2="3.358" y2="9.765" xlink:href="#linear-gradient-5"/>
    <linearGradient id="linear-gradient-30" x1="3.679" y1="52.561" x2="3.607" y2="9.81" xlink:href="#linear-gradient-5"/>
    <linearGradient id="linear-gradient-31" x1="2.04" y1="47.057" x2="2.005" y2="8.532" xlink:href="#linear-gradient-5"/>
    <linearGradient id="linear-gradient-32" x1="0.002" y1="0.501" x2="1" y2="0.501" gradientUnits="objectBoundingBox">
      <stop offset="0" stop-color="#e5c6d6"/>
      <stop offset="0.42" stop-color="#ead4d0"/>
      <stop offset="1" stop-color="#f0e9cb"/>
    </linearGradient>
    <linearGradient id="linear-gradient-33" x1="-0.001" y1="0.5" x2="1.001" y2="0.5" xlink:href="#linear-gradient-32"/>
    <linearGradient id="linear-gradient-34" x1="-0.003" y1="0.499" x2="0.998" y2="0.499" xlink:href="#linear-gradient-32"/>
    <linearGradient id="linear-gradient-35" x1="-0.004" y1="0.498" x2="0.998" y2="0.498" xlink:href="#linear-gradient-32"/>
    <linearGradient id="linear-gradient-36" x1="0" y1="0.5" x2="1.001" y2="0.5" xlink:href="#linear-gradient-32"/>
    <linearGradient id="linear-gradient-37" y1="0.5" x2="1.001" y2="0.5" gradientUnits="objectBoundingBox">
      <stop offset="0" stop-color="#010101" stop-opacity="0"/>
      <stop offset="0.95" stop-color="#010101"/>
    </linearGradient>
    <linearGradient id="linear-gradient-38" x1="0" y1="0.5" x2="1" y2="0.5" xlink:href="#linear-gradient-37"/>
    <linearGradient id="linear-gradient-39" x1="0.509" y1="-0.382" x2="0.465" y2="3.651" xlink:href="#linear-gradient-37"/>
    <linearGradient id="linear-gradient-40" x1="0.443" y1="0.912" x2="0.59" y2="-0.427" xlink:href="#linear-gradient-37"/>
    <linearGradient id="linear-gradient-41" x1="0.495" y1="-0.178" x2="0.505" y2="1.198" xlink:href="#linear-gradient-37"/>
    <linearGradient id="linear-gradient-42" x1="0.501" y1="0.622" x2="0.512" y2="1.676" xlink:href="#linear-gradient-37"/>
    <linearGradient id="linear-gradient-43" x1="0.455" y1="0.264" x2="0.766" y2="1.656" xlink:href="#linear-gradient-37"/>
    <linearGradient id="linear-gradient-44" x1="0.596" y1="0.238" x2="-0.09" y2="1.689" xlink:href="#linear-gradient-37"/>
    <linearGradient id="linear-gradient-45" x1="0.603" y1="0.096" x2="-0.102" y2="1.799" xlink:href="#linear-gradient-37"/>
  </defs>
  <g id="programming_code_2" transform="translate(-0.006 -0.008)">
    <path id="Path_270" data-name="Path 270" d="M815.393,485.636c-21.937,31.46-52.706,55.668-77.041,85.42C702.621,614.674,679.5,671.306,631.123,700.4c-22.882,13.74-49.362,19.883-75.315,25.844-41.71,9.6-84.929,19.192-126.966,11.086-32.223-6.2-61.466-22.445-90.109-38.475l-22.663-12.722c-5-2.835-10.05-5.616-15.1-8.451l-14.721-8.251C243.028,645.08,200.082,619.672,163.66,586.1c-40.583-37.257-72.843-86.292-79.549-141.051C76.333,381.77,106.1,315.306,158.481,278.939c28.734-19.992,62.992-31.115,91.217-51.851,44.545-32.714,69.063-85.038,99.65-131,56.686-85.22,165.7-126,257.494-65.428,35.676,23.518,62.665,58.449,82.494,96.324,16.757,31.932,29.079,66.573,51.361,94.925,25.444,32.387,62.483,54.814,84.747,89.472C858.794,363.25,850.724,435,815.393,485.636Z" transform="translate(-82.88 -1.75)" fill="#d72830" opacity="0.24"/>
    <path id="Path_271" data-name="Path 271" d="M227.23,375.679c-2.672,2.926,1.708,7,5.452,8.415A214.66,214.66,0,0,0,309.2,398.269l-4.453,7.579a238.848,238.848,0,0,0,125.4.654l-6.325-9.814,36.73-1.817c5.834-.273,26.3,2.126,30.169-3.053,11.141-14.921-34.2-15.5-39.075-15.7q-72.57-3.035-145.231-2.345-19.81.182-39.62.636C260.543,374.624,231.119,371.535,227.23,375.679Z" transform="translate(34.44 302.128)" fill="#d72830" opacity="0.42"/>
    <path id="Path_272" data-name="Path 272" d="M363.593,321.114q-1.472,29.079-3.508,58.267a166.041,166.041,0,0,1-3.817,29.224,85.153,85.153,0,0,1-6.034,16.557c-1.109,2.272-2.69,4.743-5.18,5-3.144.327-5.325-3.035-6.452-6-5.616-14.539-5.616-30.46-5.979-46.018q-.309-12.068-.963-24.154c-.527-9.723-1.581-20.246-8.16-27.443-2-2.181-4.435-3.962-6.4-6.2-8.015-9.087-5.616-24.408,3.017-32.968,6.706-6.634,26.171-15.394,35.567-9.905C366.846,283.984,364.12,310.627,363.593,321.114Z" transform="translate(104.574 222.221)" fill="#606161"/>
    <path id="Path_273" data-name="Path 273" d="M335.6,288a24.771,24.771,0,0,1,3.762,14.939c-.454,15.794-9.832,29.77-14.539,44.872-7.052,22.809-3.126,47.253-2.417,71.189a22.318,22.318,0,0,1-1.2,9.742,8.16,8.16,0,0,1-7.651,5.234,10.215,10.215,0,0,1-6.088-3.635c-11.559-12.359-11.177-31.205-13.086-48-2.145-18.7-7.942-36.767-12.886-54.923-2.235-8.2-4.326-16.593-3.8-25.062s4.089-17.175,11.086-21.973C301.487,271.7,326.532,275,335.6,288Z" transform="translate(76.299 222.058)" fill="#606161"/>
    <rect id="Rectangle_180" data-name="Rectangle 180" width="242.701" height="267.599" rx="12.14" transform="translate(331.569 339.764) rotate(180)" fill="#d72830" opacity="0.52"/>
    <rect id="Rectangle_181" data-name="Rectangle 181" width="242.701" height="267.599" rx="12.14" transform="translate(331.569 339.764) rotate(180)" fill="url(#linear-gradient)"/>
    <rect id="Rectangle_182" data-name="Rectangle 182" width="269.708" height="165.405" rx="11.56" transform="translate(741.383 288.148) rotate(180)" fill="#d72830" opacity="0.52"/>
    <rect id="Rectangle_183" data-name="Rectangle 183" width="269.708" height="165.405" rx="11.56" transform="translate(741.383 288.148) rotate(180)" fill="url(#linear-gradient-2)"/>
    <rect id="Rectangle_184" data-name="Rectangle 184" width="169.44" height="103.921" rx="7.26" transform="translate(579.303 167.325) rotate(180)" fill="#d72830" opacity="0.52"/>
    <rect id="Rectangle_185" data-name="Rectangle 185" width="169.44" height="103.921" rx="7.26" transform="translate(579.303 167.325) rotate(180)" fill="url(#linear-gradient-3)"/>
    <rect id="Rectangle_186" data-name="Rectangle 186" width="410.177" height="19.665" transform="translate(605.493 483.759) rotate(180)" fill="#d72830" opacity="0.52"/>
    <rect id="Rectangle_187" data-name="Rectangle 187" width="313.962" height="231.778" rx="12.56" transform="translate(566.509 438.796) rotate(180)" fill="#d72830"/>
    <rect id="Rectangle_188" data-name="Rectangle 188" width="313.962" height="231.778" rx="12.56" transform="translate(566.509 438.796) rotate(180)" fill="url(#linear-gradient-4)"/>
    <rect id="Rectangle_189" data-name="Rectangle 189" width="62.611" height="4.598" transform="translate(291.149 243.312)" fill="url(#linear-gradient-5)"/>
    <rect id="Rectangle_190" data-name="Rectangle 190" width="38.221" height="4.307" transform="translate(291.149 252.199)" fill="url(#linear-gradient-6)"/>
    <rect id="Rectangle_191" data-name="Rectangle 191" width="120.26" height="4.344" transform="translate(344.781 252.199)" fill="url(#linear-gradient-7)"/>
    <rect id="Rectangle_192" data-name="Rectangle 192" width="67.681" height="4.344" transform="translate(476.291 252.199)" fill="url(#linear-gradient-8)"/>
    <rect id="Rectangle_193" data-name="Rectangle 193" width="52.542" height="4.544" transform="translate(311.032 261.123)" fill="url(#linear-gradient-9)"/>
    <rect id="Rectangle_194" data-name="Rectangle 194" width="62.611" height="4.598" transform="translate(327.897 269.992)" fill="url(#linear-gradient-10)"/>
    <rect id="Rectangle_195" data-name="Rectangle 195" width="52.488" height="5.107" transform="translate(394.597 269.992)" fill="url(#linear-gradient-11)"/>
    <rect id="Rectangle_196" data-name="Rectangle 196" width="48.344" height="4.307" transform="translate(327.807 278.879)" fill="url(#linear-gradient-12)"/>
    <rect id="Rectangle_197" data-name="Rectangle 197" width="99.777" height="4.78" transform="translate(380.785 278.879)" fill="url(#linear-gradient-13)"/>
    <rect id="Rectangle_198" data-name="Rectangle 198" width="62.611" height="4.598" transform="translate(291.149 290.911)" fill="url(#linear-gradient-14)"/>
    <rect id="Rectangle_199" data-name="Rectangle 199" width="38.221" height="4.307" transform="translate(291.149 299.798)" fill="url(#linear-gradient-15)"/>
    <rect id="Rectangle_200" data-name="Rectangle 200" width="120.26" height="4.344" transform="translate(344.781 299.798)" fill="url(#linear-gradient-16)"/>
    <rect id="Rectangle_201" data-name="Rectangle 201" width="67.681" height="4.344" transform="translate(476.291 299.798)" fill="url(#linear-gradient-17)"/>
    <rect id="Rectangle_202" data-name="Rectangle 202" width="52.542" height="4.544" transform="translate(311.032 308.685)" fill="url(#linear-gradient-18)"/>
    <rect id="Rectangle_203" data-name="Rectangle 203" width="62.611" height="4.598" transform="translate(327.897 317.591)" fill="url(#linear-gradient-19)"/>
    <rect id="Rectangle_204" data-name="Rectangle 204" width="52.488" height="5.107" transform="translate(394.597 317.591)" fill="url(#linear-gradient-20)"/>
    <rect id="Rectangle_205" data-name="Rectangle 205" width="48.344" height="4.307" transform="translate(327.807 326.478)" fill="url(#linear-gradient-21)"/>
    <rect id="Rectangle_206" data-name="Rectangle 206" width="99.777" height="4.78" transform="translate(380.785 326.478)" fill="url(#linear-gradient-22)"/>
    <rect id="Rectangle_207" data-name="Rectangle 207" width="62.611" height="4.598" transform="translate(291.149 338.491)" fill="url(#linear-gradient-23)"/>
    <rect id="Rectangle_208" data-name="Rectangle 208" width="38.221" height="4.307" transform="translate(291.149 347.379)" fill="url(#linear-gradient-24)"/>
    <rect id="Rectangle_209" data-name="Rectangle 209" width="120.26" height="4.344" transform="translate(344.781 347.379)" fill="url(#linear-gradient-25)"/>
    <rect id="Rectangle_210" data-name="Rectangle 210" width="67.681" height="4.344" transform="translate(476.291 347.379)" fill="url(#linear-gradient-26)"/>
    <rect id="Rectangle_211" data-name="Rectangle 211" width="52.542" height="4.544" transform="translate(311.032 356.266)" fill="url(#linear-gradient-27)"/>
    <rect id="Rectangle_212" data-name="Rectangle 212" width="62.611" height="4.598" transform="translate(327.897 365.153)" fill="url(#linear-gradient-28)"/>
    <rect id="Rectangle_213" data-name="Rectangle 213" width="52.488" height="5.107" transform="translate(394.597 365.153)" fill="url(#linear-gradient-29)"/>
    <rect id="Rectangle_214" data-name="Rectangle 214" width="48.344" height="4.307" transform="translate(327.807 374.059)" fill="url(#linear-gradient-30)"/>
    <rect id="Rectangle_215" data-name="Rectangle 215" width="99.777" height="4.78" transform="translate(380.785 374.059)" fill="url(#linear-gradient-31)"/>
    <g id="Group_144" data-name="Group 144" transform="translate(431.364 77.616)" opacity="0.52">
      <rect id="Rectangle_216" data-name="Rectangle 216" width="31.151" height="2.29" fill="#d72830"/>
      <rect id="Rectangle_217" data-name="Rectangle 217" width="19.01" height="2.145" transform="translate(0 4.435)" fill="#d72830"/>
      <rect id="Rectangle_218" data-name="Rectangle 218" width="59.83" height="2.163" transform="translate(26.68 4.435)" fill="#d72830"/>
      <rect id="Rectangle_219" data-name="Rectangle 219" width="33.677" height="2.163" transform="translate(92.09 4.435)" fill="#d72830"/>
      <rect id="Rectangle_220" data-name="Rectangle 220" width="26.135" height="2.254" transform="translate(9.887 8.851)" fill="#d72830"/>
      <rect id="Rectangle_221" data-name="Rectangle 221" width="31.151" height="2.29" transform="translate(18.283 13.285)" fill="#d72830"/>
      <rect id="Rectangle_222" data-name="Rectangle 222" width="26.098" height="2.544" transform="translate(51.452 13.285)" fill="#d72830"/>
      <rect id="Rectangle_223" data-name="Rectangle 223" width="24.045" height="2.145" transform="translate(18.229 17.702)" fill="#d72830"/>
      <rect id="Rectangle_224" data-name="Rectangle 224" width="49.634" height="2.381" transform="translate(44.6 17.702)" fill="#d72830"/>
      <rect id="Rectangle_225" data-name="Rectangle 225" width="31.151" height="2.29" transform="translate(0 23.681)" fill="#d72830"/>
      <rect id="Rectangle_226" data-name="Rectangle 226" width="19.01" height="2.145" transform="translate(0 28.098)" fill="#d72830"/>
      <rect id="Rectangle_227" data-name="Rectangle 227" width="59.83" height="2.163" transform="translate(26.68 28.098)" fill="#d72830"/>
      <rect id="Rectangle_228" data-name="Rectangle 228" width="33.677" height="2.163" transform="translate(92.09 28.098)" fill="#d72830"/>
      <rect id="Rectangle_229" data-name="Rectangle 229" width="26.135" height="2.254" transform="translate(9.887 32.514)" fill="#d72830"/>
      <rect id="Rectangle_230" data-name="Rectangle 230" width="31.151" height="2.29" transform="translate(18.283 36.948)" fill="#d72830"/>
      <rect id="Rectangle_231" data-name="Rectangle 231" width="26.098" height="2.544" transform="translate(51.452 36.948)" fill="#d72830"/>
      <rect id="Rectangle_232" data-name="Rectangle 232" width="24.045" height="2.145" transform="translate(18.229 41.365)" fill="#d72830"/>
      <rect id="Rectangle_233" data-name="Rectangle 233" width="49.634" height="2.381" transform="translate(44.6 41.365)" fill="#d72830"/>
      <rect id="Rectangle_234" data-name="Rectangle 234" width="31.151" height="2.29" transform="translate(0 47.344)" fill="#d72830"/>
      <rect id="Rectangle_235" data-name="Rectangle 235" width="19.01" height="2.145" transform="translate(0 51.779)" fill="#d72830"/>
      <rect id="Rectangle_236" data-name="Rectangle 236" width="59.83" height="2.163" transform="translate(26.68 51.779)" fill="#d72830"/>
      <rect id="Rectangle_237" data-name="Rectangle 237" width="33.677" height="2.163" transform="translate(92.09 51.779)" fill="#d72830"/>
      <rect id="Rectangle_238" data-name="Rectangle 238" width="26.135" height="2.254" transform="translate(9.887 56.195)" fill="#d72830"/>
      <rect id="Rectangle_239" data-name="Rectangle 239" width="31.151" height="2.29" transform="translate(18.283 60.612)" fill="#d72830"/>
      <rect id="Rectangle_240" data-name="Rectangle 240" width="26.098" height="2.544" transform="translate(51.452 60.612)" fill="#d72830"/>
      <rect id="Rectangle_241" data-name="Rectangle 241" width="24.045" height="2.145" transform="translate(18.229 65.046)" fill="#d72830"/>
      <rect id="Rectangle_242" data-name="Rectangle 242" width="49.634" height="2.381" transform="translate(44.6 65.046)" fill="#d72830"/>
    </g>
    <path id="Path_274" data-name="Path 274" d="M363.12,259.681c1.29,3.635,2.508,7.451,1.708,11.2a10.906,10.906,0,0,1-1.545,3.635c-3.635,5.634-12.25,6.506-18.174,3.126s-9.269-9.85-10.9-16.357a17.577,17.577,0,0,1-.636-6.724c.527-3.944,3.144-7.27,5.87-10.178,3.635-3.78,10.3-8.724,15.194-4.18C359.031,244.269,361.176,254.247,363.12,259.681Z" transform="translate(121.967 191.673)" fill="url(#linear-gradient-32)"/>
    <path id="Path_275" data-name="Path 275" d="M268.489,257.94a9.342,9.342,0,0,0-1.072,4.889,8.523,8.523,0,0,0,1.272,3.053,24.518,24.518,0,0,0,6.016,7.142,12.487,12.487,0,0,0,8.742,2.708c4.653-.509,8.342-4.2,10.814-8.178a22.408,22.408,0,0,0,3.871-12.831,16.357,16.357,0,0,0-6.688-12.25c-3.508-2.544-10.814-4.853-14.776-1.945S270.47,253.251,268.489,257.94Z" transform="translate(67.951 192.324)" fill="url(#linear-gradient-33)"/>
    <path id="Path_276" data-name="Path 276" d="M331,176.128a4.4,4.4,0,0,1,3.817.672,5.07,5.07,0,0,1,1.254,3.108,22.265,22.265,0,0,1,.273,7.033,9.65,9.65,0,0,1-3.217,6.016,13.923,13.923,0,0,1-4.58,2.217,5.18,5.18,0,0,1-3.926.145,4.526,4.526,0,0,1-1.963-3.362C321.22,184.924,323.419,177.509,331,176.128Z" transform="translate(112.78 140.645)" fill="url(#linear-gradient-34)"/>
    <path id="Path_277" data-name="Path 277" d="M292.837,174.771a4.507,4.507,0,0,0-2.2,0,4.562,4.562,0,0,0-2.617,4.162,19.34,19.34,0,0,0,.327,5.107,14.1,14.1,0,0,0,3.308,7.615,6.179,6.179,0,0,0,7.542,1.309C306.922,187.621,299.652,176.262,292.837,174.771Z" transform="translate(84.768 139.566)" fill="url(#linear-gradient-35)"/>
    <path id="Path_278" data-name="Path 278" d="M330.885,212.5a16.121,16.121,0,0,1,.291,5.016c-.672,4.653-5.307,7.906-9.96,8.487s-9.305-.981-13.649-2.708a10.9,10.9,0,0,1-3.635-2.072,8.088,8.088,0,0,1-2.09-4.017,29.17,29.17,0,0,1-.473-7.96l.291-9.378a11.233,11.233,0,0,1,1.054-5.325c1.817-3.108,5.979-3.635,9.6-3.871,4.744-.2,11.886,0,15.012,4.326S330.085,207.466,330.885,212.5Z" transform="translate(95.645 152.635)" fill="url(#linear-gradient-36)"/>
    <path id="Path_279" data-name="Path 279" d="M356.494,171.458a27.788,27.788,0,0,1,1.454,12.359,231.429,231.429,0,0,1-3.017,28.77c-1.2,7.142-3.09,14.812-8.742,19.319a36.158,36.158,0,0,0-4.562,3.635c-.981,1.054-1.672,2.363-2.581,3.508-4.6,5.761-13.867,5.761-20.192,1.926s-10.378-10.414-14.085-16.811c-4.089-7.052-8.142-14.43-8.869-22.554-.6-6.434.909-13.213-1.545-19.192-1.817-4.4-5.58-7.924-6.416-12.595a21.209,21.209,0,0,1,1.127-9.305c1.472-5.289,3.726-11.4,9.087-12.831,3.907-1.054,7.942.945,12,1.072,5.162.182,10.414-2.708,15.321-1.072,6.307,2.108,9.087,9.378,15.376,11.741S353.568,164.77,356.494,171.458Z" transform="translate(84.648 117.126)" fill="#606161"/>
    <path id="Path_280" data-name="Path 280" d="M394.077,217.852c-18.429-15.285-45.018-14.9-68.736-11.668-9.8,1.327-19.774,3.09-28.388,7.96-14.43,8.178-22.972,23.99-27.461,39.984-2.381,8.487-3.635,18.174,1.127,25.626,5,7.706,14.958,10.359,24.081,11.377a8.051,8.051,0,0,1,3.962,1.145,7.033,7.033,0,0,1,2.217,4.453c2.544,13.267-2.617,28.17,4.2,39.82,6.6,11.25,21.337,14.212,34.331,15.212,16.811,1.29,35.04.818,48.689-9.087a19.756,19.756,0,0,0,5.652-5.8c2.254-3.853,2.381-8.542,2.435-12.995.145-9.705-3.4-29.224,1.327-37.785,3.962-7.124,15.248-7.161,19.21-15.3C424.228,255.31,405.363,227.194,394.077,217.852Z" transform="translate(67.929 163.876)" fill="#fff"/>
    <path id="Path_281" data-name="Path 281" d="M316.583,298.2l.127,20.664a3.981,3.981,0,0,1-.436,2.308,3.635,3.635,0,0,1-2.435,1.327c-5.6,1.309-11.45.563-17.193.582s-11.941,1.036-16.066,5.052c6.27,4.634,14.358,5.907,22.118,6.815q17.229,2.054,34.531,2.726a89.433,89.433,0,0,0,22.373-1.163,41.493,41.493,0,0,0,17.738-8.269c-5.071-5.452-13.467-5.343-20.882-5.343a190.375,190.375,0,0,1-21.591-1.236,5.906,5.906,0,0,1-4.344-1.817,5.761,5.761,0,0,1-.691-3.544,71.741,71.741,0,0,1,1.727-13.631,8.633,8.633,0,0,1,1.727-4.053,9.6,9.6,0,0,1,5.779-2.29,126.042,126.042,0,0,0,24.626-6.725,28.078,28.078,0,0,0,9-4.962c7.161-6.506,6.852-17.72,5.2-27.262A91.436,91.436,0,0,1,334.594,269.7c-10.414.291-33-4.18-40.329,5.852-3.635,5.071.236,9.76,4.253,13.267C300.263,290.312,316.583,298,316.583,298.2Z" transform="translate(78.723 207.205)" fill="url(#linear-gradient-37)"/>
    <rect id="Rectangle_243" data-name="Rectangle 243" width="104.285" height="73.915" rx="16.79" transform="translate(358.848 411.498)" fill="#d72830"/>
    <rect id="Rectangle_244" data-name="Rectangle 244" width="104.285" height="73.915" rx="16.79" transform="translate(358.848 411.498)" fill="url(#linear-gradient-38)"/>
    <rect id="Rectangle_245" data-name="Rectangle 245" width="104.285" height="73.915" rx="16.79" transform="translate(358.848 418.295)" fill="#d72830"/>
    <path id="Path_282" data-name="Path 282" d="M335.434,264.489a39.857,39.857,0,0,1-9.778,2.908c-9.087,1.672-19.7,1.309-26.244-5.289a11.669,11.669,0,0,1-2.454-3.49c-1.817-4.416.563-9.741,4.471-12.54s8.869-3.544,13.649-3.78c5.852-.291,16.975-1.29,22.082,2.654C343.267,249.677,342.322,261.254,335.434,264.489Z" transform="translate(91.604 194.608)" fill="url(#linear-gradient-39)"/>
    <rect id="Rectangle_246" data-name="Rectangle 246" width="14.231" height="117.479" rx="3.91" transform="translate(416.37 565.235) rotate(180)" fill="#fff"/>
    <path id="Path_283" data-name="Path 283" d="M340.574,358.784c3.635,3,4.544,8.2,6.143,12.722,2.217,6.179,6.325,11.8,6.87,18.338a10.251,10.251,0,0,1-.927,5.67,9.087,9.087,0,0,1-7.888,4.435,17.266,17.266,0,0,1-8.96-2.726,31.423,31.423,0,0,1-11.341-11.65,19.991,19.991,0,0,1-2.581-7.67C321.145,369.706,329.651,350.06,340.574,358.784Z" transform="translate(112.454 288.309)" fill="#d72830"/>
    <path id="Path_284" data-name="Path 284" d="M346.8,388.071a3.289,3.289,0,0,1,0,3.108,2.816,2.816,0,0,1-1.581.854,10.178,10.178,0,0,1-7.27-1.327A29.569,29.569,0,0,1,332.1,386a42.58,42.58,0,0,1-7.106-8.033,14.539,14.539,0,0,1-2.308-10.268c1.927-9.851,10.614-1.018,13.813,2.617A52.705,52.705,0,0,1,346.8,388.071Z" transform="translate(113.007 293.698)" fill="#606161"/>
    <path id="Path_285" data-name="Path 285" d="M298.887,358.905c-3.635,3-4.544,8.2-6.143,12.722-2.217,6.179-6.325,11.813-6.87,18.338a10.323,10.323,0,0,0,.927,5.689,9.087,9.087,0,0,0,7.888,4.416,17.084,17.084,0,0,0,8.96-2.726,31.278,31.278,0,0,0,11.341-11.65,19.883,19.883,0,0,0,2.581-7.67C318.3,369.828,309.792,350.109,298.887,358.905Z" transform="translate(82.988 288.387)" fill="#d72830"/>
    <path id="Path_286" data-name="Path 286" d="M288.932,388.466a3.344,3.344,0,0,0,0,3.108,2.87,2.87,0,0,0,1.6.854,10.377,10.377,0,0,0,7.27-1.327,30.254,30.254,0,0,0,5.834-4.707,42.221,42.221,0,0,0,7.124-8.051,14.539,14.539,0,0,0,2.308-10.25c-1.945-9.869-10.614-1.036-13.831,2.617A52.924,52.924,0,0,0,288.932,388.466Z" transform="translate(85.237 294.011)" fill="#606161"/>
    <path id="Path_287" data-name="Path 287" d="M327.523,349.268a19.156,19.156,0,0,1-9.4,1.818,41.22,41.22,0,0,1-10.687-.782,7.469,7.469,0,0,1-3.235-1.508,7.379,7.379,0,0,1-1.817-2.581c-2.962-6.543-6.307-20.1-1.708-25.608,5.252-6.325,26.1-7.433,32.714-.8C339.809,326.023,335.156,344.779,327.523,349.268Z" transform="translate(93.3 254.569)" fill="#d72830"/>
    <path id="Path_288" data-name="Path 288" d="M327.523,349.268a19.156,19.156,0,0,1-9.4,1.818,41.22,41.22,0,0,1-10.687-.782,7.469,7.469,0,0,1-3.235-1.508,7.379,7.379,0,0,1-1.817-2.581c-2.962-6.543-6.307-20.1-1.708-25.608,5.252-6.325,26.1-7.433,32.714-.8C339.809,326.023,335.156,344.779,327.523,349.268Z" transform="translate(93.3 254.569)" fill="url(#linear-gradient-40)"/>
    <rect id="Rectangle_247" data-name="Rectangle 247" width="9.487" height="61.211" transform="translate(415.843 665.321) rotate(180)" fill="#fff"/>
    <path id="Path_289" data-name="Path 289" d="M374.534,374.064c2.108,1.727,4.162,3.889,6.87,4.216,1.963.218,3.926-.618,5.925-.618a11.123,11.123,0,0,1,7,3.144,11.832,11.832,0,0,1,3.853,5.452c1.472,5.016-3,10.5-8.215,11.014s-10.232-3.053-12.522-7.742a17.085,17.085,0,0,0-1.926-3.635,10.559,10.559,0,0,0-2.6-2.035,76.117,76.117,0,0,0-25.135-9.941c-1.545-.309-3.435-.454-4.416.763a4.289,4.289,0,0,0-.745,2.363,83.092,83.092,0,0,0-.491,10.9,4.126,4.126,0,0,0,.382,2.036,7.269,7.269,0,0,0,1.708,1.69,7.088,7.088,0,0,1,.945,8.451,12.94,12.94,0,0,1-7.106,5.452c-3.489,1.29-7.888,1.509-10.487-1.163a7.47,7.47,0,0,1-1.363-7.706,11.54,11.54,0,0,1,5.452-5.925,4.726,4.726,0,0,0,2.145-1.636,4.217,4.217,0,0,0,.327-2.181l-.255-8.106a3.907,3.907,0,0,0-1.236-3.362,3.635,3.635,0,0,0-2.363-.345,70.88,70.88,0,0,0-36.894,13.831c1.963,1.527,1.618,4.834-.145,6.579a9.56,9.56,0,0,1-6.943,2.145,13.9,13.9,0,0,1-7.76-2.272,8.033,8.033,0,0,1-3.635-6.979,8.124,8.124,0,0,1,4.853-6.4,14.539,14.539,0,0,1,8.233-.891,16.776,16.776,0,0,0,4.344.345,13.139,13.139,0,0,0,4.58-1.908,101.522,101.522,0,0,1,40.947-12.722C349.926,365.812,364.774,366.067,374.534,374.064Z" transform="translate(74.078 296.346)" fill="#fff"/>
    <rect id="Rectangle_248" data-name="Rectangle 248" width="154.864" height="114.844" rx="11.02" transform="translate(698.854 425.728) rotate(180)" fill="#fff"/>
    <rect id="Rectangle_249" data-name="Rectangle 249" width="178.054" height="65.319" rx="10.67" transform="translate(273.502 435.234) rotate(180)" fill="#fff"/>
    <path id="Path_290" data-name="Path 290" d="M152.62,93.246,197.929,69.91v6.761L159.763,95.7v.218l38.166,19.119V121.8L152.62,98.462Z" transform="translate(-25.876 53.96)" fill="#d72830"/>
    <path id="Path_291" data-name="Path 291" d="M181,132.54l27.262-70.88H214.9l-27.262,70.88Z" transform="translate(-2.678 47.216)" fill="#d72830"/>
    <path id="Path_292" data-name="Path 292" d="M248.387,98.807,203.06,122.052v-6.924l38.457-19.119V95.7L203.06,76.58V69.91l45.327,23.245Z" transform="translate(15.355 53.96)" fill="#d72830"/>
    <rect id="Rectangle_250" data-name="Rectangle 250" width="151.701" height="47.053" rx="12.55" transform="translate(483.252 581.392) rotate(180)" fill="#d72830"/>
    <rect id="Rectangle_251" data-name="Rectangle 251" width="151.701" height="47.053" rx="12.55" transform="translate(483.252 581.392) rotate(180)" fill="url(#linear-gradient-41)"/>
    <g id="Group_145" data-name="Group 145" transform="translate(561.184 340.6)" opacity="0.52">
      <rect id="Rectangle_252" data-name="Rectangle 252" width="41.438" height="3.035" fill="#d72830"/>
      <rect id="Rectangle_253" data-name="Rectangle 253" width="25.299" height="2.853" transform="translate(0 5.87)" fill="#d72830"/>
      <rect id="Rectangle_254" data-name="Rectangle 254" width="79.586" height="2.872" transform="translate(35.495 5.87)" fill="#d72830"/>
      <rect id="Rectangle_255" data-name="Rectangle 255" width="34.786" height="3.017" transform="translate(13.158 11.777)" fill="#d72830"/>
      <rect id="Rectangle_256" data-name="Rectangle 256" width="41.438" height="3.035" transform="translate(24.317 17.647)" fill="#d72830"/>
      <rect id="Rectangle_257" data-name="Rectangle 257" width="34.731" height="3.38" transform="translate(68.445 17.647)" fill="#d72830"/>
      <rect id="Rectangle_258" data-name="Rectangle 258" width="32.005" height="2.853" transform="translate(24.245 23.536)" fill="#d72830"/>
      <rect id="Rectangle_259" data-name="Rectangle 259" width="66.027" height="3.162" transform="translate(59.321 23.536)" fill="#d72830"/>
      <rect id="Rectangle_260" data-name="Rectangle 260" width="41.438" height="3.035" transform="translate(0 31.496)" fill="#d72830"/>
      <rect id="Rectangle_261" data-name="Rectangle 261" width="25.299" height="2.853" transform="translate(0 37.367)" fill="#d72830"/>
      <rect id="Rectangle_262" data-name="Rectangle 262" width="79.586" height="2.872" transform="translate(35.495 37.367)" fill="#d72830"/>
      <rect id="Rectangle_263" data-name="Rectangle 263" width="34.786" height="3.017" transform="translate(13.158 43.255)" fill="#d72830"/>
      <rect id="Rectangle_264" data-name="Rectangle 264" width="41.438" height="3.035" transform="translate(24.317 49.143)" fill="#d72830"/>
      <rect id="Rectangle_265" data-name="Rectangle 265" width="34.731" height="3.38" transform="translate(68.445 49.143)" fill="#d72830"/>
      <rect id="Rectangle_266" data-name="Rectangle 266" width="32.005" height="2.853" transform="translate(24.245 55.032)" fill="#d72830"/>
      <rect id="Rectangle_267" data-name="Rectangle 267" width="66.027" height="3.162" transform="translate(59.321 55.032)" fill="#d72830"/>
    </g>
    <g id="Group_146" data-name="Group 146" transform="translate(122.927 384.309)" opacity="0.52">
      <rect id="Rectangle_268" data-name="Rectangle 268" width="41.438" height="3.035" fill="#d72830"/>
      <rect id="Rectangle_269" data-name="Rectangle 269" width="25.299" height="2.853" transform="translate(0 5.888)" fill="#d72830"/>
      <rect id="Rectangle_270" data-name="Rectangle 270" width="79.586" height="2.872" transform="translate(35.495 5.888)" fill="#d72830"/>
      <rect id="Rectangle_271" data-name="Rectangle 271" width="34.786" height="3.017" transform="translate(13.158 11.777)" fill="#d72830"/>
      <rect id="Rectangle_272" data-name="Rectangle 272" width="41.438" height="3.035" transform="translate(24.317 17.665)" fill="#d72830"/>
      <rect id="Rectangle_273" data-name="Rectangle 273" width="34.731" height="3.38" transform="translate(68.463 17.665)" fill="#d72830"/>
      <rect id="Rectangle_274" data-name="Rectangle 274" width="32.005" height="2.853" transform="translate(24.263 23.536)" fill="#d72830"/>
      <rect id="Rectangle_275" data-name="Rectangle 275" width="66.027" height="3.162" transform="translate(59.321 23.536)" fill="#d72830"/>
      <rect id="Rectangle_276" data-name="Rectangle 276" width="41.438" height="3.035" transform="translate(0 31.496)" fill="#d72830"/>
      <rect id="Rectangle_277" data-name="Rectangle 277" width="25.299" height="2.853" transform="translate(0 37.385)" fill="#d72830"/>
      <rect id="Rectangle_278" data-name="Rectangle 278" width="79.586" height="2.872" transform="translate(35.495 37.385)" fill="#d72830"/>
    </g>
    <path id="Path_293" data-name="Path 293" d="M200.759,369.975c-6.016-11.886-13.376-24.226-11.959-37.476.854-8.015,4.907-15.285,8.869-22.318l17.847-31.642c5.452,7.088,14.43,11.4,18.029,19.574,5.779,13.14-5.452,27.68-4.853,42.019.4,11.032,7.724,21.082,7.27,32.114-.291,8.015-12.977,34.277-23.245,33.277C207.283,405,204.175,376.7,200.759,369.975Z" transform="translate(3.553 224.502)" fill="#d72830"/>
    <path id="Path_294" data-name="Path 294" d="M200.759,369.975c-6.016-11.886-13.376-24.226-11.959-37.476.854-8.015,4.907-15.285,8.869-22.318l17.847-31.642c5.452,7.088,14.43,11.4,18.029,19.574,5.779,13.14-5.452,27.68-4.853,42.019.4,11.032,7.724,21.082,7.27,32.114-.291,8.015-12.977,34.277-23.245,33.277C207.283,405,204.175,376.7,200.759,369.975Z" transform="translate(3.553 224.502)" fill="url(#linear-gradient-42)"/>
    <path id="Path_295" data-name="Path 295" d="M249.077,326.067c4.053,0,9.087.818,10.25,4.725.945,3.417-2.054,6.561-4.907,8.669-9.941,7.27-22.391,12.849-27.262,24.172-8.088,18.792-30.987,6.743-19.138-9.523,4.907-6.725,9.087-15.757,15.194-21.373C230.23,326.249,240.044,325.958,249.077,326.067Z" transform="translate(16.683 263.34)" fill="#d72830"/>
    <path id="Path_296" data-name="Path 296" d="M249.077,326.067c4.053,0,9.087.818,10.25,4.725.945,3.417-2.054,6.561-4.907,8.669-9.941,7.27-22.391,12.849-27.262,24.172-8.088,18.792-30.987,6.743-19.138-9.523,4.907-6.725,9.087-15.757,15.194-21.373C230.23,326.249,240.044,325.958,249.077,326.067Z" transform="translate(16.683 263.34)" fill="url(#linear-gradient-43)"/>
    <path id="Path_297" data-name="Path 297" d="M209.01,335.925c-4.562-5.2-11.341-7.76-17.811-10.159-3.071-1.127-7.015-2.054-9.087.418a5.707,5.707,0,0,0,0,6.6,20.61,20.61,0,0,0,5.143,4.816,32.459,32.459,0,0,1,9.542,11.068c2.308,4.707,2.926,10.069,4.98,14.9s6.343,9.4,11.577,9.178a10.432,10.432,0,0,0,8.942-7.361c2.035-6.27-.673-9.087-4.035-13.522C214.535,346.939,213.172,340.633,209.01,335.925Z" transform="translate(-2.627 262.169)" fill="#d72830"/>
    <path id="Path_298" data-name="Path 298" d="M209.01,335.925c-4.562-5.2-11.341-7.76-17.811-10.159-3.071-1.127-7.015-2.054-9.087.418a5.707,5.707,0,0,0,0,6.6,20.61,20.61,0,0,0,5.143,4.816,32.459,32.459,0,0,1,9.542,11.068c2.308,4.707,2.926,10.069,4.98,14.9s6.343,9.4,11.577,9.178a10.432,10.432,0,0,0,8.942-7.361c2.035-6.27-.673-9.087-4.035-13.522C214.535,346.939,213.172,340.633,209.01,335.925Z" transform="translate(-2.627 262.169)" fill="url(#linear-gradient-44)"/>
    <path id="Path_299" data-name="Path 299" d="M239.583,346.82l-6.125,57.3H226.97c-5-2.835-10.05-5.616-15.1-8.451l-14.721-8.251-5.216-40.6Z" transform="translate(6.257 280.317)" fill="#d72830"/>
    <path id="Path_300" data-name="Path 300" d="M239.583,346.82l-6.125,57.3H226.97c-5-2.835-10.05-5.616-15.1-8.451l-14.721-8.251-5.216-40.6Z" transform="translate(6.257 280.317)" fill="url(#linear-gradient-45)"/>
  </g>
</svg>
