<svg xmlns="http://www.w3.org/2000/svg" xmlns:xlink="http://www.w3.org/1999/xlink" width="843.876" height="789.447" viewBox="0 0 843.876 789.447">
  <defs>
    <linearGradient id="linear-gradient" x1="0.413" y1="1.33" x2="0.774" y2="-1.764" gradientUnits="objectBoundingBox">
      <stop offset="0" stop-color="#010101" stop-opacity="0"/>
      <stop offset="0.95" stop-color="#010101"/>
    </linearGradient>
    <linearGradient id="linear-gradient-2" x1="0.443" y1="1.323" x2="0.628" y2="-1.068" xlink:href="#linear-gradient"/>
    <linearGradient id="linear-gradient-3" x1="0.098" y1="0.688" x2="0.9" y2="0.222" xlink:href="#linear-gradient"/>
    <linearGradient id="linear-gradient-4" x1="0.144" y1="0.532" x2="1.725" y2="0.43" xlink:href="#linear-gradient"/>
    <linearGradient id="linear-gradient-5" x1="1.194" y1="0.566" x2="-2.164" y2="0.305" xlink:href="#linear-gradient"/>
    <linearGradient id="linear-gradient-6" x1="0.416" y1="0.847" x2="0.769" y2="-1.337" xlink:href="#linear-gradient"/>
    <linearGradient id="linear-gradient-7" x1="0.568" y1="-2.056" x2="0.331" y2="6.825" xlink:href="#linear-gradient"/>
    <linearGradient id="linear-gradient-8" x1="0" y1="0.501" x2="1" y2="0.501" xlink:href="#linear-gradient"/>
    <linearGradient id="linear-gradient-9" x1="0.497" y1="-0.325" x2="0.513" y2="3.892" xlink:href="#linear-gradient"/>
    <linearGradient id="linear-gradient-10" x1="0.47" y1="1.325" x2="0.562" y2="-1.48" gradientUnits="objectBoundingBox">
      <stop offset="0" stop-color="#fff" stop-opacity="0"/>
      <stop offset="0.95" stop-color="#fff"/>
    </linearGradient>
    <linearGradient id="linear-gradient-11" x1="0.48" y1="0.065" x2="0.573" y2="1.763" xlink:href="#linear-gradient-10"/>
    <linearGradient id="linear-gradient-12" x1="0.409" y1="-0.407" x2="0.703" y2="1.933" xlink:href="#linear-gradient-10"/>
  </defs>
  <g id="social_media_1_1_" data-name="social_media_1 (1)" transform="translate(-0.047 0)">
    <path id="Path_301" data-name="Path 301" d="M93.812,526.592c-12.878-23.348-24.182-48.3-26.449-74.876-6.3-73.853,55.716-133.694,84.59-201.973,11.9-28.149,18.262-58.44,30.558-86.416C219.02,80.28,305.515,26.7,394.891,11.244c24.308-4.2,50.222-5.794,72.8,4.156,27.646,12.2,45.326,39.359,69.1,57.952,71.145,55.889,176.642,25.772,262.334,54.9C867.574,151.5,921.92,223.089,908.837,294.2c-12.8,69.822-82.591,121.1-87.471,191.913-2.2,32.038,9.525,63.368,11.9,95.39,4.723,63.478-31.251,128.1-87.565,157.75-28.338,14.893-60.2,21.238-91.58,27.394-54.85,10.753-117.478,33.172-173.635,30.558-51.954-2.424-108.52-26.355-154.444-49.34C231.8,700.731,141.483,622.108,93.812,526.592Z" transform="translate(-66.87 -7.97)" fill="#d72830" opacity="0.24"/>
    <path id="Path_302" data-name="Path 302" d="M323.329,491.078a18.891,18.891,0,0,0-5.211,5.809,6.549,6.549,0,0,0,.614,7.336c1.937,2,5.1,1.968,7.872,1.685a114,114,0,0,0,30.432-7.431c2.928-1.165,6.045-2.645,7.494-5.463a13.982,13.982,0,0,0,1.134-5.636l.535-8.675c.126-2.031-.142-4.644-2.094-5.211a4.423,4.423,0,0,0-1.574-.079c-6.3.346-15.46-.929-21,2.314C334.932,479.616,329.343,486.26,323.329,491.078Z" transform="translate(76.923 259.336)" fill="#d72830"/>
    <path id="Path_303" data-name="Path 303" d="M408.317,496.927a19.27,19.27,0,0,1,4.408,6.439,6.6,6.6,0,0,1-1.574,7.195c-2.188,1.732-5.321,1.275-8.013.63a113.638,113.638,0,0,1-29.173-11.4c-2.755-1.574-5.652-3.416-6.707-6.392a14.169,14.169,0,0,1-.378-5.746l.614-8.675c.142-2.031.756-4.581,2.755-4.88a4.55,4.55,0,0,1,1.574.11c6.14,1.181,15.444,1.134,20.467,5.085C398.32,484.033,403,491.354,408.317,496.927Z" transform="translate(105.336 259.737)" fill="#d72830"/>
    <path id="Path_304" data-name="Path 304" d="M323.329,491.078a18.891,18.891,0,0,0-5.211,5.809,6.549,6.549,0,0,0,.614,7.336c1.937,2,5.1,1.968,7.872,1.685a114,114,0,0,0,30.432-7.431c2.928-1.165,6.045-2.645,7.494-5.463a13.982,13.982,0,0,0,1.134-5.636l.535-8.675c.126-2.031-.142-4.644-2.094-5.211a4.423,4.423,0,0,0-1.574-.079c-6.3.346-15.46-.929-21,2.314C334.932,479.616,329.343,486.26,323.329,491.078Z" transform="translate(76.923 259.336)" fill="url(#linear-gradient)"/>
    <path id="Path_305" data-name="Path 305" d="M408.317,496.927a19.27,19.27,0,0,1,4.408,6.439,6.6,6.6,0,0,1-1.574,7.195c-2.188,1.732-5.321,1.275-8.013.63a113.638,113.638,0,0,1-29.173-11.4c-2.755-1.574-5.652-3.416-6.707-6.392a14.169,14.169,0,0,1-.378-5.746l.614-8.675c.142-2.031.756-4.581,2.755-4.88a4.55,4.55,0,0,1,1.574.11c6.14,1.181,15.444,1.134,20.467,5.085C398.32,484.033,403,491.354,408.317,496.927Z" transform="translate(105.336 259.737)" fill="url(#linear-gradient-2)"/>
    <path id="Path_306" data-name="Path 306" d="M327.89,313.105l3.92,103.451,3.936,158.458s6.927,5.006,23.914.819L375.026,412.62l7.872-73.333,19.632,79.883L392.06,576.258s9.163,7.872,24.875,7.872l28.811-165.008L424.791,298.7Z" transform="translate(83.02 159.011)" fill="#606161"/>
    <path id="Path_307" data-name="Path 307" d="M327.89,313.105l3.92,103.451,3.936,158.458s6.88,2.125,23.914.819L375.026,412.62l7.872-73.333,19.632,79.883L392.06,576.258s9.163,7.872,24.875,7.872l28.811-165.008L424.791,298.7Z" transform="translate(83.02 159.011)" fill="url(#linear-gradient-3)"/>
    <path id="Path_308" data-name="Path 308" d="M342.639,190.432s-25.882,14.169-28.811,17.034c-2.629,2.613,19.632,163.732,20.955,171.6s44.523,5.227,62.848,0a203.224,203.224,0,0,0,35.36-14.405s-9.163-167.637-13.083-170.25-40.6-10.485-40.6-10.485Z" transform="translate(74.82 93.092)" fill="#d72830"/>
    <path id="Path_309" data-name="Path 309" d="M381.13,190.56s7.872,2.613,11.776,7.872,35.36,68.091,31.487,81.189-17.034,17.034-20.955,14.405-11.839-20.907-13.067-26.2-3.841-22.5-3.841-22.5Z" transform="translate(113.599 96.9)" fill="#d72830"/>
    <path id="Path_310" data-name="Path 310" d="M412.062,289.738a12.6,12.6,0,0,0,5.778-.645,17.554,17.554,0,0,0,5.243-3.763,63.462,63.462,0,0,0,8.549-9.021,49.516,49.516,0,0,0,5.211-9.588,112.488,112.488,0,0,0,8.722-33.848c.488-4.928.6-10.092-1.5-14.563a4.361,4.361,0,0,0-1.259-1.732,3.92,3.92,0,0,0-3.149-.409c-5.416,1.1-8.533,6.628-11.257,11.446a134.413,134.413,0,0,1-18.672,25.442A116.3,116.3,0,0,0,399.593,264.5c-3.322,4.723-7.148,11.43-3.149,16.562A22.5,22.5,0,0,0,412.062,289.738Z" transform="translate(121.411 111.516)" fill="#d72830"/>
    <path id="Path_311" data-name="Path 311" d="M412.062,289.738a12.6,12.6,0,0,0,5.778-.645,17.554,17.554,0,0,0,5.243-3.763,63.462,63.462,0,0,0,8.549-9.021,49.516,49.516,0,0,0,5.211-9.588,112.488,112.488,0,0,0,8.722-33.848c.488-4.928.6-10.092-1.5-14.563a4.361,4.361,0,0,0-1.259-1.732,3.92,3.92,0,0,0-3.149-.409c-5.416,1.1-8.533,6.628-11.257,11.446a134.413,134.413,0,0,1-18.672,25.442A116.3,116.3,0,0,0,399.593,264.5c-3.322,4.723-7.148,11.43-3.149,16.562A22.5,22.5,0,0,0,412.062,289.738Z" transform="translate(121.411 111.516)" fill="url(#linear-gradient-4)"/>
    <path id="Path_312" data-name="Path 312" d="M331.429,198.25S313.166,207.1,309.246,220.2s-31.487,78.56-22.261,87.739c.787.787,1.968,2.078,3.4,3.652a16.106,16.106,0,0,0,27.457-6.392L334.7,245.827S339.206,207.743,331.429,198.25Z" transform="translate(58.448 101.317)" fill="#d72830"/>
    <path id="Path_313" data-name="Path 313" d="M316.451,290.6a4.2,4.2,0,0,1-1.685,2.047,16.184,16.184,0,0,1-3.5,2.031v.079a21.6,21.6,0,0,1-12.123,1.968c-8.092-1.086-15.618-9.918-20.734-18.168-.866-1.4-.8-4.613-1.385-6.14a8.9,8.9,0,0,1-.441-4.156c.378-8.108-.362-21.033.378-29.724a14.4,14.4,0,0,1,.142-1.889c.142-1.244.5-2.708,1.574-2.928a2.944,2.944,0,0,1,2.047.52c7.73,4.518,16.342,25.394,21.175,33.061,4.377,6.8,12.107,13.067,14.453,20.892A3.857,3.857,0,0,1,316.451,290.6Z" transform="translate(53.511 121.676)" fill="#d72830"/>
    <path id="Path_314" data-name="Path 314" d="M311.491,292.329c-.079.22-.157.441-.22.583v.079a21.6,21.6,0,0,1-12.123,1.968c-8.092-1.086-15.618-9.918-20.734-18.168-.866-1.4-.8-4.613-1.385-6.14a8.9,8.9,0,0,1-.441-4.156c.378-8.108-.362-21.033.378-29.724,7.447,5.778,15.4,24.969,19.994,32.274,4.377,6.785,12.122,13.067,14.453,20.876A4,4,0,0,1,311.491,292.329Z" transform="translate(53.511 123.441)" fill="url(#linear-gradient-5)"/>
    <path id="Path_315" data-name="Path 315" d="M330.38,179.116s3.936,17.019,2.629,23.615,9.163,24.891,22.261,24.891,13.1-22.261,13.1-24.891-5.51-8.124-4.2-14.673S331.7,171.26,330.38,179.116Z" transform="translate(84.45 88.697)" fill="#f5e0cd"/>
    <path id="Path_316" data-name="Path 316" d="M337.085,196.338A22.514,22.514,0,0,0,341.7,201.3a17.759,17.759,0,0,0,10.769,3.353,10.832,10.832,0,0,0,7.667-2.708,9.76,9.76,0,0,0,2.173-5.636,76.29,76.29,0,0,0,.756-10.375c0-1.574-.315-3.653-2.157-4.267a6.471,6.471,0,0,0-3.007,0,80.291,80.291,0,0,1-17.806.85c-4.093-.268-9.572-1.448-8.612,3.007A30.574,30.574,0,0,0,337.085,196.338Z" transform="translate(85.019 91.69)" fill="url(#linear-gradient-6)"/>
    <path id="Path_317" data-name="Path 317" d="M334.785,193.66s10.548,24.7,19.553,27.331c0,0,2.456,1.307-4.093,5.243s-24.891-15.743-22.261-30.133a10.8,10.8,0,0,1,6.518-8.36Z" transform="translate(82.927 95.281)" fill="#fff"/>
    <path id="Path_318" data-name="Path 318" d="M352.492,185.553s4.88,22.293-2.472,34.825c0,0,3.149,4.723,5.762,4.723s9.163-15.743,6.534-27.5C360.789,190.654,353.8,183.679,352.492,185.553Z" transform="translate(95.731 93.847)" fill="#fff"/>
    <path id="Path_319" data-name="Path 319" d="M310.42,254.61" transform="translate(72.986 133.688)" fill="none" stroke="#000" stroke-miterlimit="10" stroke-width="2.1"/>
    <path id="Path_320" data-name="Path 320" d="M372.688,158.6s2.613,34.053,0,43.232-10.485,17.019-18.341,17.019S334.7,212.3,329.472,200.51s-7.872-40.587-6.549-44.523,9.21-16.31,30.117-14.405C367.446,142.889,372.688,153.374,372.688,158.6Z" transform="translate(79.974 68.656)" fill="#f5e0cd"/>
    <path id="Path_321" data-name="Path 321" d="M360.418,167.571a12.453,12.453,0,0,1-.8,2.708,5.354,5.354,0,0,1-.992,1.873,5.29,5.29,0,0,1-2.377,1.275,2.078,2.078,0,0,1-1.149.126c-2.566-.708-2.251-7.132-.96-8.879.708-.945,3.275-2.991,4.408-2.629C360.229,162.565,360.623,166.217,360.418,167.571Z" transform="translate(97.534 80.499)" fill="#f5e0cd"/>
    <path id="Path_322" data-name="Path 322" d="M325,167.88a2.377,2.377,0,0,0-1.212-.63,1.669,1.669,0,0,0-.976.268,3.385,3.385,0,0,0-1.48,2.613,8.266,8.266,0,0,0,.409,3.149c.63,2.267,1.653,4.723,3.778,5.731a1.464,1.464,0,0,0,1.574,0,1.574,1.574,0,0,0,.441-.756,14.641,14.641,0,0,0,1.228-5.857C328.515,170.588,326.358,169,325,167.88Z" transform="translate(79.246 83.512)" fill="#f5e0cd"/>
    <path id="Path_323" data-name="Path 323" d="M503.066,89.87h-220a15.948,15.948,0,0,0-15.917,15.948V512.426a15.9,15.9,0,0,0,15.917,15.917h220a15.932,15.932,0,0,0,16-15.917V105.818a15.964,15.964,0,0,0-16-15.948Zm-6.124,389.2H286.278V108.038h210.7Z" transform="translate(48.134 39.069)" fill="#d72830"/>
    <circle id="Ellipse_132" data-name="Ellipse 132" cx="15.161" cy="15.161" r="15.161" transform="translate(435.643 525.817)" fill="url(#linear-gradient-7)"/>
    <path id="Path_324" data-name="Path 324" d="M336.837,200.261a16,16,0,0,0,3.432,4.817,10.548,10.548,0,0,0,7.651,2.267,8.107,8.107,0,0,0,4.361-1.4,11.919,11.919,0,0,0,2.188-2.424,51.826,51.826,0,0,0,6.959-11.02,11.776,11.776,0,0,0,1.086-4.881,5.573,5.573,0,0,0-2.078-4.377,8,8,0,0,0-3.857-1.1,52.252,52.252,0,0,0-12.044-.173c-3.4.441-9.761,1.748-11.524,5.369S335.216,197.16,336.837,200.261Z" transform="translate(85.708 91.812)" fill="none"/>
    <path id="Path_325" data-name="Path 325" d="M269.255,211.459a58.455,58.455,0,0,1,17.648,1.779,9.792,9.792,0,0,1,3.275,1.338,3.778,3.778,0,0,1,1.716,2.944c0,1.732-1.5,3.023-2.865,4.062a9.053,9.053,0,0,1,2.944,3.385,3.149,3.149,0,0,1-1.2,3.92c-.378.173-.866.3-.976.693s.236.756.5,1.055a4.172,4.172,0,0,1-2.157,6.911,2.094,2.094,0,0,1,1.889,2.488,3.369,3.369,0,0,1-2.424,2.393,9.981,9.981,0,0,1-3.558.236c-4.125-.22-8.407-.346-12.248,1.2a9.446,9.446,0,0,1-4.392,1.212,4.55,4.55,0,0,1-3.306-2.456,10.076,10.076,0,0,1-.992-4.141c-.346-6.014,1.574-12.075.582-18.026C262.848,215.5,263.226,211.758,269.255,211.459Z" transform="translate(45.793 108.858)" fill="#f5e0cd"/>
    <path id="Path_326" data-name="Path 326" d="M423.388,200.4c-3.369.52-6.911,1.086-9.635,3.149s-4.251,6.124-2.409,8.99c.567.882,1.433,1.669,1.5,2.708a4.722,4.722,0,0,1-.708,2.251,10.107,10.107,0,0,0,.976,10c-1.133,3.322-1.842,7.557.787,9.871,2.283,2,5.778,1.37,8.722.63l7.872-1.984a7.541,7.541,0,0,0,4.392-2.251,6.975,6.975,0,0,0,1.023-2.472c2.188-8.108,3.511-17.444,2.251-25.835S430.158,199.345,423.388,200.4Z" transform="translate(130.489 101.922)" fill="#f5e0cd"/>
    <path id="Path_327" data-name="Path 327" d="M332.425,139.645c5.636-5.022,12.595-8.69,16.893-14.925l.693,6.8,7.73-6.3a7.872,7.872,0,0,0,.551,4.723A10.092,10.092,0,0,1,362.306,126a13.115,13.115,0,0,0,1.055,5.7,33.17,33.17,0,0,0,5.054-6.3,7.619,7.619,0,0,0,.645,5.809,6.3,6.3,0,0,0,3.259-4.172c2.062,7.368,6.187,14.059,7.872,21.521,1.37,6.014,1.086,12.28.8,18.451a46.712,46.712,0,0,1-4.975,18.892c-1.795-5.857-2.6-10.344-5.006-15.98a22.8,22.8,0,0,0-4.723-7.872c-4.723-4.55-12.233-4.424-18.892-3.889-6.061.488-12.721,1.385-16.7,5.967-3.259,3.763-3.873,9.131-3.558,14.09s1.417,9.9.976,14.862c-4.282-5.038-8.438-10.517-9.824-16.971a18.137,18.137,0,0,1,.551-9.824c1.165-3.243,4.471-4.88,5.62-7.651s0-6.376,1.023-9.446A24.449,24.449,0,0,1,332.425,139.645Z" transform="translate(77.257 59.085)" fill="#606161"/>
    <path id="Path_328" data-name="Path 328" d="M332.425,139.645c5.636-5.022,12.595-8.69,16.893-14.925l.693,6.8,7.73-6.3a7.872,7.872,0,0,0,.551,4.723A10.092,10.092,0,0,1,362.306,126a13.115,13.115,0,0,0,1.055,5.7,33.17,33.17,0,0,0,5.054-6.3,7.619,7.619,0,0,0,.645,5.809,6.3,6.3,0,0,0,3.259-4.172c2.062,7.368,6.187,14.059,7.872,21.521,1.37,6.014,1.086,12.28.8,18.451a46.712,46.712,0,0,1-4.975,18.892c-1.795-5.857-2.6-10.344-5.006-15.98a22.8,22.8,0,0,0-4.723-7.872c-4.723-4.55-12.233-4.424-18.892-3.889-6.061.488-12.721,1.385-16.7,5.967-3.259,3.763-3.873,9.131-3.558,14.09s1.417,9.9.976,14.862c-4.282-5.038-8.438-10.517-9.824-16.971a18.137,18.137,0,0,1,.551-9.824c1.165-3.243,4.471-4.88,5.62-7.651s0-6.376,1.023-9.446A24.449,24.449,0,0,1,332.425,139.645Z" transform="translate(77.257 59.085)" fill="url(#linear-gradient-8)"/>
    <rect id="Rectangle_279" data-name="Rectangle 279" width="95.61" height="72.105" rx="14.78" transform="translate(525.491 173.446)" fill="#d72830"/>
    <rect id="Rectangle_280" data-name="Rectangle 280" width="95.61" height="72.105" rx="14.78" transform="translate(525.491 173.446)" fill="url(#linear-gradient-9)"/>
    <path id="Path_329" data-name="Path 329" d="M358.69,122.62l26.26,16.452-26.26,16.074Z" transform="translate(205.987 70.427)" fill="#d72830"/>
    <path id="Path_330" data-name="Path 330" d="M560.017,217.54v39.249a16.42,16.42,0,0,1-16.42,16.42h-2.96v17.318l-8.958-17.318H463.54a16.4,16.4,0,0,1-16.42-16.42V217.54a16.4,16.4,0,0,1,16.42-16.421H543.6a16.4,16.4,0,0,1,16.421,16.42Z" transform="translate(151.5 102.966)" fill="#d72830"/>
    <path id="Path_331" data-name="Path 331" d="M560.017,217.54v39.249a16.42,16.42,0,0,1-16.42,16.42h-2.96v17.318l-8.958-17.318H463.54a16.4,16.4,0,0,1-16.42-16.42V217.54a16.4,16.4,0,0,1,16.42-16.421H543.6a16.4,16.4,0,0,1,16.421,16.42Z" transform="translate(151.5 102.966)" fill="url(#linear-gradient-10)"/>
    <rect id="Rectangle_281" data-name="Rectangle 281" width="84.118" height="4.707" transform="translate(612.836 318.333)" fill="#d72830"/>
    <rect id="Rectangle_282" data-name="Rectangle 282" width="84.118" height="4.707" transform="translate(612.836 330.755)" fill="#d72830"/>
    <rect id="Rectangle_283" data-name="Rectangle 283" width="84.118" height="4.707" transform="translate(612.836 343.161)" fill="#d72830"/>
    <path id="Path_332" data-name="Path 332" d="M276.4,302.153c0,23.395-24.324,42.319-54.331,42.319a66.328,66.328,0,0,1-14.972-1.669l-23.71,12.138,9.446-17.16c-15.13-7.447-25.19-20.593-25.19-35.628,0-23.379,24.324-42.3,54.331-42.3S276.4,278.774,276.4,302.153Z" transform="translate(-9.02 136.697)" fill="#d72830"/>
    <path id="Path_333" data-name="Path 333" d="M276.4,302.153c0,23.395-24.324,42.319-54.331,42.319a66.328,66.328,0,0,1-14.972-1.669l-23.71,12.138,9.446-17.16c-15.13-7.447-25.19-20.593-25.19-35.628,0-23.379,24.324-42.3,54.331-42.3S276.4,278.774,276.4,302.153Z" transform="translate(-9.02 136.697)" fill="url(#linear-gradient-11)"/>
    <path id="Path_334" data-name="Path 334" d="M475.052,290.827s-12.595-16.452-24.292-.787S477.4,324.534,477.4,324.534s27.441-19.6,24.308-31.361S481.318,278.3,475.052,290.827Z" transform="translate(152.316 149.865)" fill="#d72830"/>
    <path id="Path_335" data-name="Path 335" d="M208.892,189.277S196.3,172.825,184.6,188.49s26.654,34.494,26.654,34.494,27.425-19.6,24.292-31.361S215.174,176.745,208.892,189.277Z" transform="translate(-0.553 91.54)" fill="#d72830"/>
    <path id="Path_336" data-name="Path 336" d="M208.892,189.277S196.3,172.825,184.6,188.49s26.654,34.494,26.654,34.494,27.425-19.6,24.292-31.361S215.174,176.745,208.892,189.277Z" transform="translate(-0.553 91.54)" fill="url(#linear-gradient-12)"/>
    <rect id="Rectangle_284" data-name="Rectangle 284" width="68.972" height="61.132" rx="9.97" transform="translate(223.767 167.18)" fill="#d72830"/>
    <rect id="Rectangle_285" data-name="Rectangle 285" width="40.225" height="40.225" rx="5.44" transform="translate(238.393 178.421)" fill="none" stroke="#fff" stroke-miterlimit="10" stroke-width="1.77"/>
    <circle id="Ellipse_133" data-name="Ellipse 133" cx="7.336" cy="7.336" r="7.336" transform="translate(251.287 188.953)" fill="none" stroke="#fff" stroke-miterlimit="10" stroke-width="1.77"/>
    <circle id="Ellipse_134" data-name="Ellipse 134" cx="2.44" cy="2.44" r="2.44" transform="translate(267.424 184.356)" fill="none" stroke="#fff" stroke-miterlimit="10" stroke-width="0.88"/>
    <path id="Path_337" data-name="Path 337" d="M302.88,73.044S316.766,97.431,339.452,94.6s24.387-21.553,24.387-21.553h8.218l-6.8-5.384s-2.267-8.218-8.5-6.3S342,71.281,342,71.281L316.813,48.61A9.981,9.981,0,0,0,317.38,59.1s-3.4,4.818.283,7.651c0,0,0,4.818,3.684,6.8C321.3,73.611,312.232,80.994,302.88,73.044Z" transform="translate(68.656 15.371)" fill="#d72830"/>
  </g>
</svg>
