<svg id="undraw_all_the_data_h4ki" xmlns="http://www.w3.org/2000/svg" width="670.5" height="497.17" viewBox="0 0 670.5 497.17">
  <ellipse id="Ellipse_112" data-name="Ellipse 112" cx="86.459" cy="11.22" rx="86.459" ry="11.22" transform="translate(497.582 474.731)" fill="#3f3d56"/>
  <rect id="Rectangle_92" data-name="Rectangle 92" width="261.016" height="162.836" transform="translate(0 16.865)" fill="#f2f2f2"/>
  <rect id="Rectangle_93" data-name="Rectangle 93" width="261.016" height="162.836" transform="translate(16.463 1)" fill="none" stroke="#3f3d56" stroke-miterlimit="10" stroke-width="2"/>
  <path id="Path_147" data-name="Path 147" d="M325.792,173.166A56.274,56.274,0,0,0,286,77.1v56.274Z" transform="translate(-138.729 -51.255)" fill="#3f3d56"/>
  <path id="Path_148" data-name="Path 148" d="M248.271,77.1a56.281,56.281,0,0,0-26.921,105.7l26.921-49.428Z" transform="translate(-101.001 -51.255)" fill="tomato"/>
  <path id="Path_149" data-name="Path 149" d="M307.744,210.892,267.953,171.1l-26.921,49.428a56.3,56.3,0,0,0,66.712-9.636Z" transform="translate(-120.682 -88.981)" fill="#575a89"/>
  <rect id="Rectangle_94" data-name="Rectangle 94" width="10.776" height="10.776" transform="translate(26.341 130.011)" fill="tomato"/>
  <rect id="Rectangle_95" data-name="Rectangle 95" width="10.776" height="10.776" transform="translate(41.906 130.011)" fill="#3f3d56"/>
  <rect id="Rectangle_96" data-name="Rectangle 96" width="10.776" height="10.776" transform="translate(57.471 130.011)" fill="#575a89"/>
  <rect id="Rectangle_97" data-name="Rectangle 97" width="44.301" height="1.796" transform="translate(212.525 132.406)" fill="#3f3d56"/>
  <rect id="Rectangle_98" data-name="Rectangle 98" width="44.301" height="1.796" transform="translate(212.525 137.794)" fill="#3f3d56"/>
  <rect id="Rectangle_99" data-name="Rectangle 99" width="44.301" height="1.796" transform="translate(212.525 143.182)" fill="#3f3d56"/>
  <rect id="Rectangle_100" data-name="Rectangle 100" width="148.468" height="162.836" transform="translate(82.017 243.757)" fill="#f2f2f2"/>
  <rect id="Rectangle_101" data-name="Rectangle 101" width="148.468" height="162.836" transform="translate(96.983 228.192)" fill="none" stroke="#3f3d56" stroke-miterlimit="10" stroke-width="2"/>
  <rect id="Rectangle_102" data-name="Rectangle 102" width="8.005" height="8.005" transform="translate(104.766 372.657)" fill="tomato"/>
  <rect id="Rectangle_103" data-name="Rectangle 103" width="8.005" height="8.005" transform="translate(116.328 372.657)" fill="#3f3d56"/>
  <rect id="Rectangle_104" data-name="Rectangle 104" width="8.005" height="8.005" transform="translate(127.891 372.657)" fill="#575a89"/>
  <rect id="Rectangle_105" data-name="Rectangle 105" width="31.13" height="1.262" transform="translate(194.565 376.134)" fill="#3f3d56"/>
  <rect id="Rectangle_106" data-name="Rectangle 106" width="31.13" height="1.262" transform="translate(194.565 379.92)" fill="#3f3d56"/>
  <rect id="Rectangle_107" data-name="Rectangle 107" width="31.13" height="1.262" transform="translate(194.565 383.706)" fill="#3f3d56"/>
  <path id="Path_150" data-name="Path 150" d="M326,463.1v13.171a39.512,39.512,0,0,1,27.939,67.451l9.313,9.313A52.682,52.682,0,0,0,326,463.1Z" transform="translate(-154.783 -206.172)" fill="#3f3d56"/>
  <path id="Path_151" data-name="Path 151" d="M341.882,607.082l-9.313-9.313a39.5,39.5,0,0,1-51.844,3.515l-7.972,10.489A52.681,52.681,0,0,0,341.882,607.082Z" transform="translate(-133.413 -260.22)" fill="#575a89"/>
  <path id="Path_152" data-name="Path 152" d="M251.168,515.782a39.512,39.512,0,0,1,39.512-39.512V463.1A52.682,52.682,0,0,0,258.8,557.725l7.972-10.489A39.443,39.443,0,0,1,251.168,515.782Z" transform="translate(-119.463 -206.172)" fill="tomato"/>
  <path id="Path_153" data-name="Path 153" d="M950.569,174.052s-2.443,18.146,3.839,20.24,4.536,18.146,4.536,18.146L940.1,226.745l-16.75,1.4-4.187-21.635,2.443-5.583s9.422-11.167,2.792-22.682S950.569,174.052,950.569,174.052Z" transform="translate(-392.843 -89.244)" fill="#ffb9b9"/>
  <path id="Path_154" data-name="Path 154" d="M950.569,174.052s-2.443,18.146,3.839,20.24,4.536,18.146,4.536,18.146L940.1,226.745l-16.75,1.4-4.187-21.635,2.443-5.583s9.422-11.167,2.792-22.682S950.569,174.052,950.569,174.052Z" transform="translate(-392.843 -89.244)" opacity="0.1"/>
  <path id="Path_155" data-name="Path 155" d="M894.288,348.97,872.3,400.616s-17.1-9.771-27.219-8.724S822.4,380.726,822.4,380.726l12.563-60.719,23.38-64.557L890.8,276.038Z" transform="translate(-354.009 -122.834)" fill="#575a89"/>
  <path id="Path_156" data-name="Path 156" d="M894.288,348.97,872.3,400.616s-17.1-9.771-27.219-8.724S822.4,380.726,822.4,380.726l12.563-60.719,23.38-64.557L890.8,276.038Z" transform="translate(-354.009 -122.834)" opacity="0.1"/>
  <path id="Path_157" data-name="Path 157" d="M949.659,741.837v16.75h-15.7l2.443-19.542Z" transform="translate(-374.833 -296.206)" fill="#575a89"/>
  <path id="Path_158" data-name="Path 158" d="M1019.031,695.328l11.512,6.979-8.375,19.192-8.723-1.047-8.375-11.864Z" transform="translate(-403.374 -278.661)" fill="#575a89"/>
  <path id="Path_159" data-name="Path 159" d="M961.937,403.505l20.589,48.505s-7.328,53.739-6.979,58.276.7,6.281-1.047,10.12-2.443,6.281-1.4,10.818,1.4,6.281.7,8.026-5.583,73.63-8.026,78.515,1.4,12.911-1.047,13.609-20.589-1.047-21.635-5.234,3.49-14.307,1.047-17.448.349-116.2-3.141-123.88-41.875-14.656-41.875-14.656-3.49-22.333-1.4-25.823,4.887-25.474,4.887-25.474Z" transform="translate(-383.972 -182.255)" fill="#2f2e41"/>
  <path id="Path_160" data-name="Path 160" d="M969.518,798.193s9.771-11.516,18.146,0c0,0,.7,13.609,6.63,16.4s3.141,13.958-5.234,14.307-19.193,1.745-19.542-2.792,1.4-7.328-1.745-8.724,0-9.422,0-9.422Z" transform="translate(-411.792 -338.604)" fill="#2f2e41"/>
  <path id="Path_161" data-name="Path 161" d="M943.707,513.642s-.349,25.125-2.792,28.615-3.839,5.583-2.443,9.422,3.49,10.818,2.443,12.214,1.047,8.724,1.047,8.724,26.87,12.911,39.432,39.781c0,0,12.911,21.286,16.75,21.635s8.375-2.443,6.281,5.583-10.12,18.495-16.052,17.448S977.906,645.9,977.906,645.9s-46.411-47.109-51.3-48.505-18.844-12.562-21.286-19.542-7.677-65.255-5.234-69.093,11.516-9.073,11.516-9.073Z" transform="translate(-384.933 -220.855)" fill="#2f2e41"/>
  <path id="Path_162" data-name="Path 162" d="M1065.445,727.6s21.635.7,21.984,5.932-9.073,36.292-7.677,43.62-10.818,24.078-18.844,20.589-1.745-21.635-1.745-21.635-8.026-24.776-6.63-25.125,15.354-4.536,14.656-8.724S1065.445,727.6,1065.445,727.6Z" transform="translate(-446.304 -312.325)" fill="#2f2e41"/>
  <circle id="Ellipse_113" data-name="Ellipse 113" cx="21.635" cy="21.635" r="21.635" transform="translate(519.865 60.207)" fill="#ffb9b9"/>
  <path id="Path_163" data-name="Path 163" d="M940.245,219.935S928.381,232.5,919.657,230.4s-13.26-17.1-13.26-17.1l-15.7-2.792s-11.167,49.552-11.167,54.437,11.167,57.578,11.167,67-9.073,15.005,4.885,14.656,7.328-4.885,27.568-5.234,23.38,4.188,27.568-3.141a58.383,58.383,0,0,1,10.469-12.911L953.855,299.5l-1.05-72.932s-8.947-17.448-13.023-16.052C939.785,210.514,941.99,218.19,940.245,219.935Z" transform="translate(-376.935 -104.768)" fill="tomato"/>
  <path id="Path_164" data-name="Path 164" d="M971.74,205.411s18.605,2.039,23.84,5.878,19.891,6.63,19.542,9.422-17.1,42.573-17.1,42.573-7.677,31.406-1.047,38.734,31.406,87.239,27.219,93.869-17.448-20.24-17.448-20.24-17.8-57.578-27.568-67.349-10.469-62.463-10.469-64.906S971.74,205.411,971.74,205.411Z" transform="translate(-412.728 -102.752)" fill="#575a89"/>
  <path id="Path_165" data-name="Path 165" d="M880.992,208.164s-22.925-8.638-30.951-5.148-12.911,4.187-12.911,4.187l-2.791,34.2s-1.047,49.2-10.12,61.068-15.005,61.417-13.609,66.3-2.443,13.26,3.49,11.167,22.333-50.25,22.333-50.25,0-27.568,9.771-35.245,25.823-39.432,26.521-47.109,7.328-28.963,7.328-28.963Z" transform="translate(-349.194 -101.457)" fill="#575a89"/>
  <path id="Path_166" data-name="Path 166" d="M1032.2,390.875s-10.471,19.541-11.866,23.031-11.167,27.219-25.125,21.984,13.609-30.708,13.609-30.708L1015.1,383.9S1031.5,380.406,1032.2,390.875Z" transform="translate(-421.779 -174.16)" fill="#ffb9b9"/>
  <path id="Path_167" data-name="Path 167" d="M817.233,209h-3.49a8.035,8.035,0,0,0-7.677-1.047c-4.187,1.745-13.958-.7-13.958.349s-10.818-3.141-15.354-1.047-20.937,2.792-20.937,2.792-6.63,16.75-2.094,19.891,11.167.7,14.307,3.141,9.073-.349,11.167,2.792,9.771,8.724,11.516,5.234-1.745-6.63,5.583-2.792,18.844,3.839,18.844,3.839Z" transform="translate(-325.808 -103.252)" fill="#575a89"/>
  <path id="Path_168" data-name="Path 168" d="M932.614,130.137c-2.928-.676-5.967.073-8.932.559s-6.233.646-8.741-1.008c-1.853-1.222-2.991-3.243-4.061-5.188a5.971,5.971,0,0,1-.874-2.289,5.329,5.329,0,0,1,1.76-3.818c4.512-4.96,11.106-7.674,17.755-8.537a30.677,30.677,0,0,1,16.213,1.98,21.211,21.211,0,0,1,11.371,11.41,32.41,32.41,0,0,1,1.7,8.148,24.341,24.341,0,0,1,.115,6.171,26.463,26.463,0,0,1-1.2,4.471l-3.288,9.926a6.542,6.542,0,0,1-1.293,2.559,2.237,2.237,0,0,1-2.619.574,8.151,8.151,0,0,0,.118-3.293,2.779,2.779,0,0,0-2.192-2.211c-1.212-.129-2.247.811-3.4,1.215a4.178,4.178,0,0,1-5.275-3.14c-.181-1.135.123-2.35-.307-3.415-.5-1.249-1.84-1.9-2.844-2.8a6.547,6.547,0,0,1-1.8-6.8c.269-.826,1.028-1.2.876-2.151C935.507,131.251,933.671,130.381,932.614,130.137Z" transform="translate(-389.163 -64.279)" fill="#2f2e41"/>
  <rect id="Rectangle_108" data-name="Rectangle 108" width="148.468" height="162.836" transform="translate(303.521 141.985)" fill="#f2f2f2"/>
  <rect id="Rectangle_109" data-name="Rectangle 109" width="148.468" height="162.836" transform="translate(318.488 126.419)" fill="none" stroke="#3f3d56" stroke-miterlimit="10" stroke-width="2"/>
  <path id="Path_169" data-name="Path 169" d="M556,227.5V352.021H676.331" transform="translate(-223.145 -90.903)" fill="none" stroke="#3f3d56" stroke-miterlimit="10" stroke-width="2"/>
  <rect id="Rectangle_110" data-name="Rectangle 110" width="26.94" height="43.104" transform="translate(339.441 217.416)" fill="#575a89"/>
  <rect id="Rectangle_111" data-name="Rectangle 111" width="26.94" height="72.438" transform="translate(378.354 188.081)" fill="#3f3d56"/>
  <rect id="Rectangle_112" data-name="Rectangle 112" width="26.94" height="106.562" transform="translate(417.267 153.958)" fill="tomato"/>
  <rect id="Rectangle_113" data-name="Rectangle 113" width="8.005" height="8.005" transform="translate(331.059 270.885)" fill="tomato"/>
  <rect id="Rectangle_114" data-name="Rectangle 114" width="8.005" height="8.005" transform="translate(342.622 270.885)" fill="#3f3d56"/>
  <rect id="Rectangle_115" data-name="Rectangle 115" width="8.005" height="8.005" transform="translate(354.185 270.885)" fill="#575a89"/>
  <rect id="Rectangle_116" data-name="Rectangle 116" width="31.13" height="1.262" transform="translate(420.858 274.362)" fill="#3f3d56"/>
  <rect id="Rectangle_117" data-name="Rectangle 117" width="31.13" height="1.262" transform="translate(420.858 278.148)" fill="#3f3d56"/>
  <rect id="Rectangle_118" data-name="Rectangle 118" width="31.13" height="1.262" transform="translate(420.858 281.934)" fill="#3f3d56"/>
  <path id="Path_170" data-name="Path 170" d="M756.96,212.275a11.119,11.119,0,0,1,10.4,12.378c-.624,5.736-2.924,12.874-10.17,15.616-12.911,4.885-12.214-22.682-9.771-23.729C749.05,215.842,751.61,212.042,756.96,212.275Z" transform="translate(-323.346 -105.502)" fill="#ffb9b9"/>
  <path id="Path_171" data-name="Path 171" d="M1027.655,227.854l3.839,1.864s8.375,17.1,8.724,19.542,5.932,11.516,3.839,13.958-5.234,8.724-3.141,11.167,6.979,12.214,6.979,15.7-5.234,12.911-1.745,13.958,2.443,14.656,1.745,15.7-9.771,18.146-9.771,18.146-1.745-19.542-18.844-11.516c0,0-1.4-9.771,0-10.469s4.885-4.885,2.094-5.583-6.63-9.073-5.932-10.12,2.443-2.443.7-3.49-3.141-6.979-2.792-8.026-3.839-5.932-3.839-5.932Z" transform="translate(-429.102 -111.759)" fill="#575a89"/>
</svg>
